   		 <svg 
 xmlns="http://www.w3.org/2000/svg"
 xmlns:xlink="http://www.w3.org/1999/xlink"
 width="634px" height="119px">
<path fill-rule="evenodd"  stroke="rgb(228, 234, 247)" stroke-width="2px" stroke-dasharray="8, 4" stroke-linecap="butt" stroke-linejoin="miter" fill="none"
 d="M11.000,58.000 C11.000,58.000 101.500,-38.500 273.000,46.000 "/>
<path fill-rule="evenodd"  stroke="rgb(228, 234, 247)" stroke-width="2px" stroke-dasharray="8, 4" stroke-linecap="butt" stroke-linejoin="miter" fill="none"
 d="M612.000,55.349 C612.000,55.349 530.413,156.723 381.000,82.399 "/>
<path fill-rule="evenodd"  stroke="rgb(228, 234, 247)" stroke-width="2px" stroke-dasharray="8, 4" stroke-linecap="butt" stroke-linejoin="miter" fill="none"
 d="M330.000,1.000 C362.032,1.000 388.000,26.967 388.000,59.000 C388.000,91.033 362.032,117.000 330.000,117.000 C297.967,117.000 272.000,91.033 272.000,59.000 C272.000,26.967 297.967,1.000 330.000,1.000 Z"/>

<path fill-rule="evenodd"  stroke="rgb(228, 234, 247)" stroke-width="2px" stroke-dasharray="8, 4" stroke-linecap="butt" stroke-linejoin="miter" fill="rgb(228, 234, 247)"
 d="M620.000,42.000 C623.314,42.000 626.000,44.686 626.000,48.000 C626.000,51.314 623.314,54.000 620.000,54.000 C616.686,54.000 614.000,51.314 614.000,48.000 C614.000,44.686 616.686,42.000 620.000,42.000 Z"/>
<path fill-rule="evenodd"  stroke="rgb(228, 234, 247)" stroke-width="2px" stroke-dasharray="8, 4" stroke-linecap="butt" stroke-linejoin="miter" fill="rgb(228, 234, 247)"
 d="M7.000,58.000 C10.314,58.000 13.000,60.686 13.000,64.000 C13.000,67.314 10.314,70.000 7.000,70.000 C3.686,70.000 1.000,67.314 1.000,64.000 C1.000,60.686 3.686,58.000 7.000,58.000 Z"/>
<path fill-rule="evenodd"  stroke="rgb(228, 234, 247)" stroke-width="2px" stroke-dasharray="8, 4" stroke-linecap="butt" stroke-linejoin="miter" fill="none"
 d="M620.000,36.000 C626.627,36.000 632.000,41.373 632.000,48.000 C632.000,54.627 626.627,60.000 620.000,60.000 C613.373,60.000 608.000,54.627 608.000,48.000 C608.000,41.373 613.373,36.000 620.000,36.000 Z"/>
</svg>